# xmcd CD database file
#
# Track frame offsets:
#	150
#	11953
#	21998
#	35142
#	46832
#	55763
#	65363
#	75847
#	88123
#	100819
#	111666
#	120543
#	131904
#	146631
#	154893
#	165625
#	176820
#	188048
#	201258
#	211555
#
# Disc length: 3038 seconds
#
# Revision: 1
# Processed by: cddbd v1.5.1PL0 Copyright (c) Steve Scherf et al.
# Submitted via: CDex 1.51
#
DISCID=1b0bdc14
DTITLE=The Country Collection - The Yellow Rose of Texas
DYEAR=2001
DGENRE=Country
TTITLE0=Do what you do well/Ned Miller
TTITLE1=Lonesome number one/Don Gibson
TTITLE2=City Lights/Ray Price
TTITLE3=The yellow rose of Texas/Roy Rogers
TTITLE4=Alone with you/Faron Young
TTITLE5=I don't believe you've met my baby/The Lovin Brothers
TTITLE6=Pick me up on your way down/Charlie Walker
TTITLE7=I love you because/Stonewall Jackson
TTITLE8=The Carroll County Accident/Porter Wagoner
TTITLE9=There won't be anymore/Charlie Rich
TTITLE10=If you don't bit don't growl/Tommy Collins
TTITLE11=Crazy arms/Ray Price
TTITLE12=A good year for the roses/Johnny Paycheck
TTITLE13=Blue blue day/Don Gibson
TTITLE14=Riverboat/Faron Young
TTITLE15=Waterloo/Stonewall Jackson
TTITLE16=Tender Years/Johnny Paycheck
TTITLE17=Room full of roses/Ferlin Huskin
TTITLE18=I can't help it/Stonewall Jackson
TTITLE19=Cool Water/Moe Bandy
EXTD=YEAR: 2001
EXTT0=
EXTT1=
EXTT2=
EXTT3=
EXTT4=
EXTT5=
EXTT6=
EXTT7=
EXTT8=
EXTT9=
EXTT10=
EXTT11=
EXTT12=
EXTT13=
EXTT14=
EXTT15=
EXTT16=
EXTT17=
EXTT18=
EXTT19=
PLAYORDER=
